<?xml version="1.0" encoding="UTF-8" standalone="no"?> <!-- Created with Vectornator for iOS (http://vectornator.io/) --><!DOCTYPE svg PUBLIC "-//W3C//DTD SVG 1.1//EN" "http://www.w3.org/Graphics/SVG/1.1/DTD/svg11.dtd">
<svg height="100%" style="fill-rule:evenodd;clip-rule:evenodd;stroke-linecap:round;stroke-linejoin:round;" xmlns:xlink="http://www.w3.org/1999/xlink" xmlns="http://www.w3.org/2000/svg" xml:space="preserve" width="100%" xmlns:vectornator="http://vectornator.io" version="1.1" viewBox="0 0 477.867 477.867">
<metadata>
<vectornator:setting key="Units" value="Points"/>
<vectornator:setting key="GuidesVisible" value="1"/>
<vectornator:setting key="RulersVisible" value="1"/>
<vectornator:setting key="SnapToGuides" value="1"/>
<vectornator:setting key="DynamicGuides" value="1"/>
</metadata>
<defs/>
<g id="Untitled" vectornator:layerName="Untitled">
<path d="M392.533+0L85.333+0C38.228+0.056+0.056+38.228+0+85.333L0+392.533C0.056+439.638+38.228+477.81+85.333+477.866L392.533+477.866C439.638+477.81+477.81+439.638+477.866+392.533L477.866+85.333C477.81+38.228+439.638+0.056+392.533+0ZM324.267+256L256+256L256+324.267C256+333.693+248.359+341.334+238.933+341.334C229.507+341.334+221.866+333.693+221.866+324.267L221.866+256L153.6+256C144.174+256+136.533+248.359+136.533+238.933C136.533+229.507+144.174+221.866+153.6+221.866L221.867+221.866L221.867+153.6C221.867+144.174+229.508+136.533+238.934+136.533C248.36+136.533+256+144.174+256+153.6L256+221.867L324.267+221.867C333.693+221.867+341.334+229.508+341.334+238.934C341.334+248.36+333.692+256+324.267+256Z" opacity="1" fill="#ffffff"/>
</g>
</svg>
