<?xml version="1.0" encoding="UTF-8" standalone="no"?> <!-- Created with Vectornator for iOS (http://vectornator.io/) --><!DOCTYPE svg PUBLIC "-//W3C//DTD SVG 1.1//EN" "http://www.w3.org/Graphics/SVG/1.1/DTD/svg11.dtd">
<svg height="100%" style="fill-rule:evenodd;clip-rule:evenodd;stroke-linecap:round;stroke-linejoin:round;" xmlns:xlink="http://www.w3.org/1999/xlink" xmlns="http://www.w3.org/2000/svg" xml:space="preserve" width="100%" xmlns:vectornator="http://vectornator.io" version="1.1" viewBox="0 0 512 512">
<metadata>
<vectornator:setting key="Units" value="Points"/>
<vectornator:setting key="GuidesVisible" value="1"/>
<vectornator:setting key="RulersVisible" value="1"/>
<vectornator:setting key="SnapToGuides" value="1"/>
<vectornator:setting key="DynamicGuides" value="1"/>
</metadata>
<defs/>
<g id="Untitled" vectornator:layerName="Untitled">
<path d="M498.195+222.695C498.184+222.684+498.172+222.672+498.16+222.66L289.305+13.8125C280.402+4.90625+268.566+2.49594e-07+255.977+2.49594e-07C243.387+2.49594e-07+231.551+4.90234+222.645+13.8086L13.8984+222.551C13.8281+222.621+13.7578+222.695+13.6875+222.766C-4.59375+241.152-4.5625+270.984+13.7773+289.324C22.1562+297.707+33.2227+302.563+45.0547+303.07C45.5352+303.117+46.0195+303.141+46.5078+303.141L54.832+303.141L54.832+456.84C54.832+487.254+79.5781+512+110+512L191.711+512C199.992+512+206.711+505.285+206.711+497L206.711+376.5C206.711+362.621+218+351.332+231.879+351.332L280.074+351.332C293.953+351.332+305.242+362.621+305.242+376.5L305.242+497C305.242+505.285+311.957+512+320.242+512L401.953+512C432.375+512+457.121+487.254+457.121+456.84L457.121+303.141L464.84+303.141C477.426+303.141+489.262+298.238+498.172+289.332C516.531+270.961+516.539+241.078+498.195+222.695Z" opacity="1" fill="#ffffff"/>
</g>
</svg>
