<?xml version="1.0" encoding="UTF-8" standalone="no"?> <!-- Created with Vectornator for iOS (http://vectornator.io/) --><!DOCTYPE svg PUBLIC "-//W3C//DTD SVG 1.1//EN" "http://www.w3.org/Graphics/SVG/1.1/DTD/svg11.dtd">
<svg height="100%" style="fill-rule:evenodd;clip-rule:evenodd;stroke-linecap:round;stroke-linejoin:round;" xmlns:xlink="http://www.w3.org/1999/xlink" xmlns="http://www.w3.org/2000/svg" xml:space="preserve" width="100%" xmlns:vectornator="http://vectornator.io" version="1.1" viewBox="0 0 24 24">
<metadata>
<vectornator:setting key="Units" value="Points"/>
<vectornator:setting key="GuidesVisible" value="1"/>
<vectornator:setting key="RulersVisible" value="1"/>
<vectornator:setting key="SnapToGuides" value="1"/>
<vectornator:setting key="DynamicGuides" value="1"/>
</metadata>
<defs/>
<g id="Untitled" vectornator:layerName="Untitled">
<path d="M20.25+11C19.983+11+19.721+11.029+19.468+11.082C19.131+7.673+16.246+5+12.75+5C12.336+5+12+5.336+12+5.75L12+17.75C12+18.164+12.336+18.5+12.75+18.5L20.25+18.5C22.319+18.5+24+16.819+24+14.75C24+12.683+22.319+11+20.25+11Z" opacity="1" fill="#ffffff"/>
<path d="M9+7.25L9+17.75C9+18.164+9.336+18.5+9.75+18.5C10.164+18.5+10.5+18.164+10.5+17.75L10.5+7.25C10.5+6.836+10.164+6.5+9.75+6.5C9.336+6.5+9+6.836+9+7.25Z" opacity="1" fill="#ffffff"/>
<path d="M6+10.25L6+17.75C6+18.164+6.336+18.5+6.75+18.5C7.164+18.5+7.5+18.164+7.5+17.75L7.5+10.25C7.5+9.836+7.164+9.5+6.75+9.5C6.336+9.5+6+9.836+6+10.25Z" opacity="1" fill="#ffffff"/>
<path d="M3+17.75C3+18.164+3.336+18.5+3.75+18.5C4.164+18.5+4.5+18.164+4.5+17.75L4.5+10.25C4.5+9.836+4.164+9.5+3.75+9.5C3.336+9.5+3+9.836+3+10.25L3+17.75Z" opacity="1" fill="#ffffff"/>
<path d="M0.75+18.5C1.164+18.5+1.5+18.164+1.5+17.75L1.5+13.25C1.5+12.836+1.164+12.5+0.75+12.5C0.336+12.5+0+12.836+0+13.25L0+17.75C0+18.164+0.336+18.5+0.75+18.5Z" opacity="1" fill="#ffffff"/>
</g>
</svg>
