<?xml version="1.0" encoding="UTF-8" standalone="no"?> <!-- Created with Vectornator for iOS (http://vectornator.io/) --><!DOCTYPE svg PUBLIC "-//W3C//DTD SVG 1.1//EN" "http://www.w3.org/Graphics/SVG/1.1/DTD/svg11.dtd">
<svg height="100%" style="fill-rule:evenodd;clip-rule:evenodd;stroke-linecap:round;stroke-linejoin:round;" xmlns:xlink="http://www.w3.org/1999/xlink" xmlns="http://www.w3.org/2000/svg" xml:space="preserve" width="100%" xmlns:vectornator="http://vectornator.io" version="1.1" viewBox="0 0 682.667 682">
<metadata>
<vectornator:setting key="Units" value="Points"/>
<vectornator:setting key="GuidesVisible" value="1"/>
<vectornator:setting key="RulersVisible" value="1"/>
<vectornator:setting key="SnapToGuides" value="1"/>
<vectornator:setting key="DynamicGuides" value="1"/>
</metadata>
<defs/>
<g id="Untitled" vectornator:layerName="Untitled">
<path d="M647.812+181.035C640.438+153.617+618.82+132.004+591.406+124.621C541.324+110.918+340.992+110.918+340.992+110.918C340.992+110.918+140.668+110.918+90.5859+124.102C63.6992+131.477+41.5547+153.621+34.1797+181.035C21+231.113+21+334.969+21+334.969C21+334.969+21+439.348+34.1797+488.902C41.5625+516.316+63.1719+537.93+90.5898+545.312C141.195+559.02+341+559.02+341+559.02C341+559.02+541.324+559.02+591.406+545.836C618.824+538.457+640.438+516.844+647.82+489.43C660.996+439.348+660.996+335.496+660.996+335.496C660.996+335.496+661.523+231.113+647.812+181.035ZM277.211+430.914L277.211+239.023L443.797+334.969L277.211+430.914Z" opacity="1" fill="#ffffff"/>
</g>
</svg>
